<?xml version="1.0" encoding="UTF-8" ?>
<!DOCTYPE svg PUBLIC "-//W3C//DTD SVG 1.1//EN" "http://www.w3.org/Graphics/SVG/1.1/DTD/svg11.dtd">
<svg width="512pt" height="384pt" viewBox="0 0 512 384" version="1.1" xmlns="http://www.w3.org/2000/svg">
<g id="#c5221fff">
<path fill="#c5221f" opacity="1.00" d=" M 48.54 0.00 L 56.41 0.00 C 66.22 0.84 75.74 4.45 83.61 10.36 C 94.59 18.56 105.57 26.77 116.51 35.04 C 116.22 79.00 116.47 122.97 116.36 166.94 C 116.26 173.31 116.87 179.74 115.69 186.05 C 115.15 185.52 114.07 184.48 113.53 183.95 C 113.14 182.45 112.18 181.76 110.64 181.87 C 110.35 181.65 109.77 181.21 109.48 180.99 C 109.14 179.45 108.18 178.74 106.61 178.86 C 106.33 178.64 105.77 178.21 105.49 178.00 C 105.16 176.46 104.20 175.75 102.64 175.87 C 102.35 175.65 101.76 175.21 101.47 174.99 C 101.14 173.44 100.19 172.73 98.62 172.87 C 98.34 172.65 97.76 172.20 97.48 171.98 C 97.13 170.44 96.17 169.73 94.60 169.86 C 94.32 169.63 93.75 169.19 93.47 168.97 C 93.12 167.43 92.16 166.72 90.59 166.85 C 90.32 166.63 89.76 166.20 89.48 165.99 C 89.15 164.45 88.20 163.74 86.63 163.87 C 86.33 163.64 85.74 163.19 85.44 162.96 C 85.08 161.42 84.12 160.71 82.56 160.82 C 82.28 160.61 81.74 160.19 81.47 159.98 C 81.13 158.44 80.18 157.73 78.61 157.85 C 78.33 157.64 77.77 157.21 77.49 157.00 C 77.16 155.46 76.20 154.75 74.63 154.87 C 74.33 154.64 73.73 154.18 73.43 153.96 C 73.08 152.42 72.11 151.70 70.55 151.81 C 70.28 151.61 69.75 151.20 69.48 150.99 C 69.16 149.46 68.21 148.75 66.63 148.86 C 66.34 148.64 65.76 148.21 65.46 147.99 C 65.13 146.45 64.18 145.73 62.61 145.84 C 62.32 145.62 61.73 145.18 61.44 144.96 C 61.11 143.42 60.16 142.71 58.59 142.84 C 58.32 142.63 57.78 142.22 57.51 142.02 C 57.18 140.48 56.23 139.76 54.66 139.88 C 54.36 139.66 53.77 139.22 53.47 139.00 C 53.15 137.45 52.20 136.74 50.62 136.86 C 50.33 136.64 49.76 136.20 49.47 135.99 C 49.13 134.44 48.18 133.73 46.61 133.85 C 46.32 133.63 45.74 133.19 45.45 132.97 C 45.10 131.43 44.14 130.72 42.57 130.82 C 42.31 130.62 41.78 130.22 41.51 130.01 C 41.18 128.47 40.22 127.76 38.65 127.88 C 38.35 127.65 37.75 127.20 37.45 126.97 C 37.10 125.42 36.14 124.71 34.57 124.83 C 34.30 124.62 33.77 124.21 33.50 124.01 C 33.17 122.47 32.22 121.76 30.65 121.88 C 30.36 121.66 29.76 121.21 29.47 120.99 C 29.13 119.44 28.18 118.73 26.61 118.85 C 26.33 118.64 25.76 118.21 25.47 117.99 C 25.13 116.45 24.18 115.74 22.61 115.84 C 22.33 115.64 21.78 115.22 21.50 115.01 C 21.17 113.47 20.22 112.76 18.65 112.88 C 18.36 112.66 17.77 112.21 17.47 111.99 C 17.14 110.45 16.18 109.74 14.61 109.85 C 14.33 109.64 13.78 109.23 13.51 109.02 C 13.18 107.48 12.23 106.76 10.66 106.88 C 10.35 106.65 9.74 106.19 9.44 105.97 C 9.09 104.43 8.14 103.71 6.56 103.82 C 6.28 103.61 5.73 103.18 5.45 102.97 C 5.10 101.46 4.16 100.73 2.62 100.76 C 1.70 100.33 0.84 99.82 0.00 99.26 L 0.00 49.62 C 0.61 40.17 3.50 30.80 8.91 22.97 C 17.76 9.83 32.80 1.32 48.54 0.00 Z" />
</g>
<g id="#fbbc04ff">
<path fill="#fbbc04" opacity="1.00" d=" M 455.56 0.00 L 463.28 0.00 C 478.59 1.25 493.28 9.25 502.24 21.77 C 508.15 29.82 511.32 39.65 512.00 49.57 L 512.00 98.87 C 473.42 127.85 434.81 156.79 396.20 185.73 C 395.66 135.42 396.25 85.08 395.90 34.76 C 406.89 26.47 417.89 18.19 428.94 9.97 C 436.67 4.26 445.99 0.83 455.56 0.00 Z" />
</g>
<g id="#ea4335ff">
<path fill="#ea4335" opacity="1.00" d=" M 256.01 139.64 C 302.65 104.70 349.24 69.69 395.90 34.76 C 396.25 85.08 395.66 135.42 396.20 185.73 C 396.07 185.82 395.83 186.01 395.71 186.10 C 349.18 221.09 302.58 255.99 256.00 290.91 C 209.42 255.96 162.87 220.97 116.23 186.12 C 116.77 180.07 116.64 173.99 116.59 167.93 C 116.69 123.67 116.48 79.41 116.71 35.16 C 163.15 69.99 209.59 104.80 256.01 139.64 Z" />
</g>
<g id="#4285f4ff">
<path fill="#4285f4" opacity="1.00" d=" M 0.00 99.26 C 0.84 99.82 1.70 100.33 2.62 100.76 C 3.12 102.04 4.06 102.78 5.45 102.97 C 5.73 103.18 6.28 103.61 6.56 103.82 C 7.13 105.05 8.09 105.77 9.44 105.97 C 9.74 106.19 10.35 106.65 10.66 106.88 C 11.21 108.11 12.16 108.82 13.51 109.02 C 13.78 109.23 14.33 109.64 14.61 109.85 C 15.17 111.08 16.13 111.80 17.47 111.99 C 17.77 112.21 18.36 112.66 18.65 112.88 C 19.21 114.11 20.16 114.82 21.50 115.01 C 21.78 115.22 22.33 115.64 22.61 115.84 C 23.17 117.08 24.12 117.79 25.47 117.99 C 25.76 118.21 26.33 118.64 26.61 118.85 C 27.17 120.08 28.12 120.79 29.47 120.99 C 29.76 121.21 30.36 121.66 30.65 121.88 C 31.21 123.11 32.16 123.82 33.50 124.01 C 33.77 124.21 34.30 124.62 34.57 124.83 C 35.14 126.06 36.09 126.77 37.45 126.97 C 37.75 127.20 38.35 127.65 38.65 127.88 C 39.22 129.11 40.17 129.82 41.51 130.01 C 41.78 130.22 42.31 130.62 42.57 130.82 C 43.14 132.06 44.10 132.77 45.45 132.97 C 45.74 133.19 46.32 133.63 46.61 133.85 C 47.17 135.08 48.12 135.79 49.47 135.99 C 49.76 136.20 50.33 136.64 50.62 136.86 C 51.18 138.09 52.13 138.80 53.47 139.00 C 53.77 139.22 54.36 139.66 54.66 139.88 C 55.21 141.11 56.16 141.82 57.51 142.02 C 57.78 142.22 58.32 142.63 58.59 142.84 C 59.15 144.07 60.10 144.77 61.44 144.96 C 61.73 145.18 62.32 145.62 62.61 145.84 C 63.17 147.08 64.12 147.79 65.46 147.99 C 65.76 148.21 66.34 148.64 66.63 148.86 C 67.19 150.09 68.14 150.81 69.48 150.99 C 69.75 151.20 70.28 151.61 70.55 151.81 C 71.12 153.04 72.08 153.76 73.43 153.96 C 73.73 154.18 74.33 154.64 74.63 154.87 C 75.19 156.10 76.15 156.81 77.49 157.00 C 77.77 157.21 78.33 157.64 78.61 157.85 C 79.17 159.08 80.12 159.79 81.47 159.98 C 81.74 160.19 82.28 160.61 82.56 160.82 C 83.13 162.05 84.09 162.76 85.44 162.96 C 85.74 163.19 86.33 163.64 86.63 163.87 C 87.19 165.09 88.14 165.80 89.48 165.99 C 89.76 166.20 90.32 166.63 90.59 166.85 C 91.16 168.08 92.12 168.79 93.47 168.97 C 93.75 169.19 94.32 169.63 94.60 169.86 C 95.17 171.08 96.13 171.79 97.48 171.98 C 97.76 172.20 98.34 172.65 98.62 172.87 C 99.18 174.09 100.13 174.80 101.47 174.99 C 101.76 175.21 102.35 175.65 102.64 175.87 C 103.19 177.10 104.14 177.81 105.49 178.00 C 105.77 178.21 106.33 178.64 106.61 178.86 C 107.18 180.09 108.13 180.80 109.48 180.99 C 109.77 181.21 110.35 181.65 110.64 181.87 C 111.20 183.13 112.16 183.83 113.53 183.95 C 114.07 184.48 115.15 185.52 115.69 186.05 C 115.88 186.18 116.27 186.46 116.46 186.60 C 116.24 252.40 116.43 318.20 116.36 384.00 L 33.51 384.00 C 22.67 383.54 12.23 377.80 6.13 368.82 C 2.63 363.88 0.80 357.97 0.00 352.02 L 0.00 99.26 Z" />
</g>
<g id="#34a853ff">
<path fill="#34a853" opacity="1.00" d=" M 396.20 185.73 C 434.81 156.79 473.42 127.85 512.00 98.87 L 512.00 351.77 C 511.08 360.69 506.99 369.32 500.19 375.24 C 494.66 380.27 487.43 383.04 480.08 384.00 L 395.64 384.00 C 395.68 318.03 395.55 252.07 395.71 186.10 C 395.83 186.01 396.07 185.82 396.20 185.73 Z" />
</g>
<g id="#a03620b7">
<path fill="#a03620" opacity="0.72" d=" M 2.62 100.76 C 4.16 100.73 5.10 101.46 5.45 102.97 C 4.06 102.78 3.12 102.04 2.62 100.76 Z" />
<path fill="#a03620" opacity="0.72" d=" M 6.56 103.82 C 8.14 103.71 9.09 104.43 9.44 105.97 C 8.09 105.77 7.13 105.05 6.56 103.82 Z" />
<path fill="#a03620" opacity="0.72" d=" M 10.66 106.88 C 12.23 106.76 13.18 107.48 13.51 109.02 C 12.16 108.82 11.21 108.11 10.66 106.88 Z" />
<path fill="#a03620" opacity="0.72" d=" M 14.61 109.85 C 16.18 109.74 17.14 110.45 17.47 111.99 C 16.13 111.80 15.17 111.08 14.61 109.85 Z" />
<path fill="#a03620" opacity="0.72" d=" M 18.65 112.88 C 20.22 112.76 21.17 113.47 21.50 115.01 C 20.16 114.82 19.21 114.11 18.65 112.88 Z" />
<path fill="#a03620" opacity="0.72" d=" M 22.61 115.84 C 24.18 115.74 25.13 116.45 25.47 117.99 C 24.12 117.79 23.17 117.08 22.61 115.84 Z" />
<path fill="#a03620" opacity="0.72" d=" M 26.61 118.85 C 28.18 118.73 29.13 119.44 29.47 120.99 C 28.12 120.79 27.17 120.08 26.61 118.85 Z" />
<path fill="#a03620" opacity="0.72" d=" M 30.65 121.88 C 32.22 121.76 33.17 122.47 33.50 124.01 C 32.16 123.82 31.21 123.11 30.65 121.88 Z" />
<path fill="#a03620" opacity="0.72" d=" M 34.57 124.83 C 36.14 124.71 37.10 125.42 37.45 126.97 C 36.09 126.77 35.14 126.06 34.57 124.83 Z" />
<path fill="#a03620" opacity="0.72" d=" M 38.65 127.88 C 40.22 127.76 41.18 128.47 41.51 130.01 C 40.17 129.82 39.22 129.11 38.65 127.88 Z" />
<path fill="#a03620" opacity="0.72" d=" M 42.57 130.82 C 44.14 130.72 45.10 131.43 45.45 132.97 C 44.10 132.77 43.14 132.06 42.57 130.82 Z" />
<path fill="#a03620" opacity="0.72" d=" M 46.61 133.85 C 48.18 133.73 49.13 134.44 49.47 135.99 C 48.12 135.79 47.17 135.08 46.61 133.85 Z" />
<path fill="#a03620" opacity="0.72" d=" M 50.62 136.86 C 52.20 136.74 53.15 137.45 53.47 139.00 C 52.13 138.80 51.18 138.09 50.62 136.86 Z" />
<path fill="#a03620" opacity="0.72" d=" M 54.66 139.88 C 56.23 139.76 57.18 140.48 57.51 142.02 C 56.16 141.82 55.21 141.11 54.66 139.88 Z" />
<path fill="#a03620" opacity="0.72" d=" M 58.59 142.84 C 60.16 142.71 61.11 143.42 61.44 144.96 C 60.10 144.77 59.15 144.07 58.59 142.84 Z" />
<path fill="#a03620" opacity="0.72" d=" M 62.61 145.84 C 64.18 145.73 65.13 146.45 65.46 147.99 C 64.12 147.79 63.17 147.08 62.61 145.84 Z" />
<path fill="#a03620" opacity="0.72" d=" M 66.63 148.86 C 68.21 148.75 69.16 149.46 69.48 150.99 C 68.14 150.81 67.19 150.09 66.63 148.86 Z" />
<path fill="#a03620" opacity="0.72" d=" M 70.55 151.81 C 72.11 151.70 73.08 152.42 73.43 153.96 C 72.08 153.76 71.12 153.04 70.55 151.81 Z" />
<path fill="#a03620" opacity="0.72" d=" M 74.63 154.87 C 76.20 154.75 77.16 155.46 77.49 157.00 C 76.15 156.81 75.19 156.10 74.63 154.87 Z" />
<path fill="#a03620" opacity="0.72" d=" M 78.61 157.85 C 80.18 157.73 81.13 158.44 81.47 159.98 C 80.12 159.79 79.17 159.08 78.61 157.85 Z" />
<path fill="#a03620" opacity="0.72" d=" M 82.56 160.82 C 84.12 160.71 85.08 161.42 85.44 162.96 C 84.09 162.76 83.13 162.05 82.56 160.82 Z" />
<path fill="#a03620" opacity="0.72" d=" M 86.63 163.87 C 88.20 163.74 89.15 164.45 89.48 165.99 C 88.14 165.80 87.19 165.09 86.63 163.87 Z" />
<path fill="#a03620" opacity="0.72" d=" M 90.59 166.85 C 92.16 166.72 93.12 167.43 93.47 168.97 C 92.12 168.79 91.16 168.08 90.59 166.85 Z" />
<path fill="#a03620" opacity="0.72" d=" M 94.60 169.86 C 96.17 169.73 97.13 170.44 97.48 171.98 C 96.13 171.79 95.17 171.08 94.60 169.86 Z" />
<path fill="#a03620" opacity="0.72" d=" M 98.62 172.87 C 100.19 172.73 101.14 173.44 101.47 174.99 C 100.13 174.80 99.18 174.09 98.62 172.87 Z" />
<path fill="#a03620" opacity="0.72" d=" M 102.64 175.87 C 104.20 175.75 105.16 176.46 105.49 178.00 C 104.14 177.81 103.19 177.10 102.64 175.87 Z" />
<path fill="#a03620" opacity="0.72" d=" M 106.61 178.86 C 108.18 178.74 109.14 179.45 109.48 180.99 C 108.13 180.80 107.18 180.09 106.61 178.86 Z" />
<path fill="#a03620" opacity="0.72" d=" M 110.64 181.87 C 112.18 181.76 113.14 182.45 113.53 183.95 C 112.16 183.83 111.20 183.13 110.64 181.87 Z" />
</g>
</svg>
